<mxfile host="app.diagrams.net" agent="Mozilla/5.0 (Windows NT 10.0; Win64; x64) AppleWebKit/537.36 (KHTML, like Gecko) Chrome/136.0.0.0 Safari/537.36" version="26.2.14" pages="2">
  <diagram name="rtcd vm" id="O5fWP2f4NKzEqBK_rM2J">
    <mxGraphModel dx="1434" dy="746" grid="1" gridSize="10" guides="1" tooltips="1" connect="1" arrows="1" fold="1" page="1" pageScale="1" pageWidth="1100" pageHeight="850" math="0" shadow="0">
      <root>
        <mxCell id="0" />
        <mxCell id="1" parent="0" />
        <mxCell id="5oRU0e_QoRcV5nBqJaB--1" value="Kubernetes" style="rounded=1;whiteSpace=wrap;html=1;fillColor=#dae8fc;strokeColor=#6c8ebf;labelPosition=center;verticalLabelPosition=top;align=center;verticalAlign=bottom;" vertex="1" parent="1">
          <mxGeometry x="590" y="200" width="350" height="320" as="geometry" />
        </mxCell>
        <mxCell id="5oRU0e_QoRcV5nBqJaB--2" value="mattermost" style="aspect=fixed;sketch=0;html=1;dashed=0;whitespace=wrap;verticalLabelPosition=bottom;verticalAlign=top;fillColor=#2875E2;strokeColor=#ffffff;points=[[0.005,0.63,0],[0.1,0.2,0],[0.9,0.2,0],[0.5,0,0],[0.995,0.63,0],[0.72,0.99,0],[0.5,1,0],[0.28,0.99,0]];shape=mxgraph.kubernetes.icon2;prIcon=pod" vertex="1" parent="1">
          <mxGeometry x="728.54" y="271" width="72.92" height="70" as="geometry" />
        </mxCell>
        <mxCell id="5oRU0e_QoRcV5nBqJaB--3" value="RTCD" style="verticalLabelPosition=bottom;html=1;verticalAlign=top;align=center;strokeColor=none;fillColor=#00BEF2;shape=mxgraph.azure.virtual_machine;" vertex="1" parent="1">
          <mxGeometry x="340" y="140" width="50" height="40" as="geometry" />
        </mxCell>
        <mxCell id="5oRU0e_QoRcV5nBqJaB--4" value="mattermost client&lt;div&gt;(edge browser, etc)&lt;/div&gt;" style="points=[[0.13,0.02,0],[0.5,0,0],[0.87,0.02,0],[0.885,0.4,0],[0.985,0.985,0],[0.5,1,0],[0.015,0.985,0],[0.115,0.4,0]];verticalLabelPosition=bottom;sketch=0;html=1;verticalAlign=top;aspect=fixed;align=center;pointerEvents=1;shape=mxgraph.cisco19.laptop;fillColor=#005073;strokeColor=none;" vertex="1" parent="1">
          <mxGeometry x="90" y="327" width="50" height="35" as="geometry" />
        </mxCell>
        <mxCell id="5oRU0e_QoRcV5nBqJaB--5" style="edgeStyle=orthogonalEdgeStyle;rounded=0;orthogonalLoop=1;jettySize=auto;html=1;entryX=0.005;entryY=0.63;entryDx=0;entryDy=0;entryPerimeter=0;strokeWidth=3;strokeColor=#00FF00;" edge="1" parent="1" source="5oRU0e_QoRcV5nBqJaB--4" target="5oRU0e_QoRcV5nBqJaB--2">
          <mxGeometry relative="1" as="geometry">
            <Array as="points">
              <mxPoint x="610" y="345" />
              <mxPoint x="610" y="315" />
            </Array>
          </mxGeometry>
        </mxCell>
        <mxCell id="5oRU0e_QoRcV5nBqJaB--6" style="edgeStyle=orthogonalEdgeStyle;rounded=0;orthogonalLoop=1;jettySize=auto;html=1;strokeWidth=3;strokeColor=#00FF00;endArrow=none;startFill=0;" edge="1" parent="1">
          <mxGeometry relative="1" as="geometry">
            <mxPoint x="40" y="681" as="sourcePoint" />
            <mxPoint x="160" y="680" as="targetPoint" />
          </mxGeometry>
        </mxCell>
        <mxCell id="5oRU0e_QoRcV5nBqJaB--7" value="TCP" style="edgeLabel;html=1;align=center;verticalAlign=middle;resizable=0;points=[];" vertex="1" connectable="0" parent="5oRU0e_QoRcV5nBqJaB--6">
          <mxGeometry x="-0.0247" y="-1" relative="1" as="geometry">
            <mxPoint as="offset" />
          </mxGeometry>
        </mxCell>
        <mxCell id="5oRU0e_QoRcV5nBqJaB--8" style="edgeStyle=orthogonalEdgeStyle;rounded=0;orthogonalLoop=1;jettySize=auto;html=1;exitX=0.1;exitY=0.2;exitDx=0;exitDy=0;exitPerimeter=0;entryX=1;entryY=0.5;entryDx=0;entryDy=0;entryPerimeter=0;strokeWidth=3;strokeColor=#00FF00;" edge="1" parent="1" source="5oRU0e_QoRcV5nBqJaB--2" target="5oRU0e_QoRcV5nBqJaB--3">
          <mxGeometry relative="1" as="geometry" />
        </mxCell>
        <mxCell id="5oRU0e_QoRcV5nBqJaB--9" value="Istio&lt;div&gt;Ingress&lt;/div&gt;" style="aspect=fixed;sketch=0;html=1;dashed=0;whitespace=wrap;verticalLabelPosition=bottom;verticalAlign=top;fillColor=#2875E2;strokeColor=#ffffff;points=[[0.005,0.63,0],[0.1,0.2,0],[0.9,0.2,0],[0.5,0,0],[0.995,0.63,0],[0.72,0.99,0],[0.5,1,0],[0.28,0.99,0]];shape=mxgraph.kubernetes.icon2;kubernetesLabel=1;prIcon=ing" vertex="1" parent="1">
          <mxGeometry x="567" y="320" width="50" height="48" as="geometry" />
        </mxCell>
        <mxCell id="5oRU0e_QoRcV5nBqJaB--10" value="tcp:8045&lt;br&gt;&lt;div&gt;api&lt;/div&gt;" style="strokeWidth=1;shadow=0;dashed=0;align=center;html=1;shape=mxgraph.mockup.text.callout;linkText=;textSize=17;textColor=#666666;callDir=NE;callStyle=line;fontSize=17;fontColor=#666666;align=right;verticalAlign=top;strokeColor=#666666;" vertex="1" parent="1">
          <mxGeometry x="390" y="80" width="110" height="70" as="geometry" />
        </mxCell>
        <mxCell id="5oRU0e_QoRcV5nBqJaB--12" value="web&lt;div&gt;tcp:8065&lt;/div&gt;" style="strokeWidth=1;shadow=0;dashed=0;align=center;html=1;shape=mxgraph.mockup.text.callout;linkText=;textSize=17;textColor=#666666;callDir=SW;callStyle=line;fontSize=17;fontColor=#666666;align=left;verticalAlign=bottom;strokeColor=#666666;" vertex="1" parent="1">
          <mxGeometry x="640" y="327" width="88.54" height="103" as="geometry" />
        </mxCell>
        <mxCell id="5oRU0e_QoRcV5nBqJaB--13" value="web&lt;div&gt;tcp:443&lt;/div&gt;" style="strokeWidth=1;shadow=0;dashed=0;align=center;html=1;shape=mxgraph.mockup.text.callout;linkText=;textSize=17;textColor=#666666;callDir=SW;callStyle=line;fontSize=17;fontColor=#666666;align=left;verticalAlign=bottom;strokeColor=#666666;" vertex="1" parent="1">
          <mxGeometry x="478.46000000000004" y="350" width="88.54" height="103" as="geometry" />
        </mxCell>
      </root>
    </mxGraphModel>
  </diagram>
  <diagram id="3zsyKIyZ6-cN96LavBrV" name="nodeport">
    <mxGraphModel dx="1426" dy="743" grid="1" gridSize="10" guides="1" tooltips="1" connect="1" arrows="1" fold="1" page="1" pageScale="1" pageWidth="1100" pageHeight="850" math="0" shadow="0">
      <root>
        <mxCell id="0" />
        <mxCell id="1" parent="0" />
        <mxCell id="l_toODga9vDxubMpZagS-1" value="Kubernetes" style="rounded=1;whiteSpace=wrap;html=1;fillColor=#dae8fc;strokeColor=#6c8ebf;labelPosition=center;verticalLabelPosition=top;align=center;verticalAlign=bottom;" parent="1" vertex="1">
          <mxGeometry x="590" y="200" width="350" height="320" as="geometry" />
        </mxCell>
        <mxCell id="l_toODga9vDxubMpZagS-2" value="mattermost" style="aspect=fixed;sketch=0;html=1;dashed=0;whitespace=wrap;verticalLabelPosition=middle;verticalAlign=middle;fillColor=#2875E2;strokeColor=#ffffff;points=[[0.005,0.63,0],[0.1,0.2,0],[0.9,0.2,0],[0.5,0,0],[0.995,0.63,0],[0.72,0.99,0],[0.5,1,0],[0.28,0.99,0]];shape=mxgraph.kubernetes.icon2;prIcon=pod;labelPosition=right;align=left;opacity=70;" parent="1" vertex="1">
          <mxGeometry x="758.54" y="220" width="72.92" height="70" as="geometry" />
        </mxCell>
        <mxCell id="l_toODga9vDxubMpZagS-3" value="RTCD&lt;div&gt;replicas: 1&lt;br&gt;&lt;div&gt;&lt;b&gt;NodePort: 30123&lt;/b&gt;&lt;/div&gt;&lt;/div&gt;" style="verticalLabelPosition=bottom;html=1;verticalAlign=top;align=center;strokeColor=none;fillColor=#00BEF2;shape=mxgraph.azure.virtual_machine;opacity=50;" parent="1" vertex="1">
          <mxGeometry x="770" y="411" width="50" height="40" as="geometry" />
        </mxCell>
        <mxCell id="l_toODga9vDxubMpZagS-4" value="mattermost client&lt;div&gt;(edge browser, etc)&lt;/div&gt;" style="points=[[0.13,0.02,0],[0.5,0,0],[0.87,0.02,0],[0.885,0.4,0],[0.985,0.985,0],[0.5,1,0],[0.015,0.985,0],[0.115,0.4,0]];verticalLabelPosition=bottom;sketch=0;html=1;verticalAlign=top;aspect=fixed;align=center;pointerEvents=1;shape=mxgraph.cisco19.laptop;fillColor=#005073;strokeColor=none;" parent="1" vertex="1">
          <mxGeometry x="90" y="327" width="50" height="35" as="geometry" />
        </mxCell>
        <mxCell id="l_toODga9vDxubMpZagS-6" style="edgeStyle=orthogonalEdgeStyle;rounded=0;orthogonalLoop=1;jettySize=auto;html=1;strokeWidth=3;strokeColor=#009A00;endArrow=none;startFill=0;" parent="1" edge="1">
          <mxGeometry relative="1" as="geometry">
            <mxPoint x="112" y="519" as="sourcePoint" />
            <mxPoint x="232" y="518" as="targetPoint" />
          </mxGeometry>
        </mxCell>
        <mxCell id="l_toODga9vDxubMpZagS-7" value="TCP" style="edgeLabel;html=1;align=center;verticalAlign=middle;resizable=0;points=[];" parent="l_toODga9vDxubMpZagS-6" vertex="1" connectable="0">
          <mxGeometry x="-0.0247" y="-1" relative="1" as="geometry">
            <mxPoint as="offset" />
          </mxGeometry>
        </mxCell>
        <mxCell id="l_toODga9vDxubMpZagS-8" style="edgeStyle=orthogonalEdgeStyle;rounded=0;orthogonalLoop=1;jettySize=auto;html=1;exitX=0.5;exitY=1;exitDx=0;exitDy=0;exitPerimeter=0;entryX=0.5;entryY=0;entryDx=0;entryDy=0;entryPerimeter=0;strokeWidth=3;strokeColor=#00FF00;startArrow=classic;startFill=1;" parent="1" source="l_toODga9vDxubMpZagS-2" target="l_toODga9vDxubMpZagS-3" edge="1">
          <mxGeometry relative="1" as="geometry" />
        </mxCell>
        <mxCell id="Kne1mPzZdq38PCkMq-cb-7" value="UDP Info&lt;div&gt;for Client&lt;/div&gt;" style="edgeLabel;html=1;align=center;verticalAlign=middle;resizable=0;points=[];fontColor=#0000FF;fontStyle=1" vertex="1" connectable="0" parent="l_toODga9vDxubMpZagS-8">
          <mxGeometry x="-0.1736" relative="1" as="geometry">
            <mxPoint as="offset" />
          </mxGeometry>
        </mxCell>
        <mxCell id="l_toODga9vDxubMpZagS-9" value="Istio&lt;div&gt;Ingress&lt;/div&gt;" style="aspect=fixed;sketch=0;html=1;dashed=0;whitespace=wrap;verticalLabelPosition=bottom;verticalAlign=top;fillColor=#2875E2;strokeColor=#ffffff;points=[[0.005,0.63,0],[0.1,0.2,0],[0.9,0.2,0],[0.5,0,0],[0.995,0.63,0],[0.72,0.99,0],[0.5,1,0],[0.28,0.99,0]];shape=mxgraph.kubernetes.icon2;kubernetesLabel=1;prIcon=ing" parent="1" vertex="1">
          <mxGeometry x="567" y="321" width="50" height="48" as="geometry" />
        </mxCell>
        <mxCell id="l_toODga9vDxubMpZagS-17" style="edgeStyle=orthogonalEdgeStyle;rounded=0;orthogonalLoop=1;jettySize=auto;html=1;exitX=0.985;exitY=0.985;exitDx=0;exitDy=0;exitPerimeter=0;entryX=0;entryY=0.5;entryDx=0;entryDy=0;entryPerimeter=0;strokeWidth=3;strokeColor=#0000FF;" parent="1" source="l_toODga9vDxubMpZagS-4" target="l_toODga9vDxubMpZagS-3" edge="1">
          <mxGeometry relative="1" as="geometry">
            <Array as="points">
              <mxPoint x="510" y="362" />
              <mxPoint x="510" y="431" />
            </Array>
          </mxGeometry>
        </mxCell>
        <mxCell id="l_toODga9vDxubMpZagS-15" value="Azure LB&lt;div&gt;&lt;font style=&quot;color: rgb(255, 128, 0);&quot;&gt;&lt;b style=&quot;&quot;&gt;80 (TCP)&lt;/b&gt;&lt;/font&gt;&lt;/div&gt;&lt;div&gt;&lt;font style=&quot;color: rgb(255, 128, 0);&quot;&gt;&lt;b&gt;443 (TCP)&lt;/b&gt;&lt;/font&gt;&lt;/div&gt;&lt;div&gt;&lt;b&gt;&lt;font style=&quot;color: rgb(255, 128, 0);&quot;&gt;8443 (UDP)&lt;/font&gt;&lt;/b&gt;&lt;/div&gt;" style="outlineConnect=0;dashed=0;verticalLabelPosition=bottom;verticalAlign=top;align=center;html=1;shape=mxgraph.aws3.classic_load_balancer;fillColor=#F58536;gradientColor=none;" parent="1" vertex="1">
          <mxGeometry x="340" y="330" width="50" height="45" as="geometry" />
        </mxCell>
        <mxCell id="l_toODga9vDxubMpZagS-18" style="edgeStyle=orthogonalEdgeStyle;rounded=0;orthogonalLoop=1;jettySize=auto;html=1;strokeWidth=3;strokeColor=#0000FF;endArrow=none;startFill=0;" parent="1" edge="1">
          <mxGeometry relative="1" as="geometry">
            <mxPoint x="112" y="501" as="sourcePoint" />
            <mxPoint x="232" y="500" as="targetPoint" />
          </mxGeometry>
        </mxCell>
        <mxCell id="l_toODga9vDxubMpZagS-19" value="UDP" style="edgeLabel;html=1;align=center;verticalAlign=middle;resizable=0;points=[];" parent="l_toODga9vDxubMpZagS-18" vertex="1" connectable="0">
          <mxGeometry x="-0.0247" y="-1" relative="1" as="geometry">
            <mxPoint as="offset" />
          </mxGeometry>
        </mxCell>
        <mxCell id="LrroqsVYPY0s_gGEzE_g-3" style="edgeStyle=orthogonalEdgeStyle;rounded=0;orthogonalLoop=1;jettySize=auto;html=1;exitX=0.5;exitY=1;exitDx=0;exitDy=0;exitPerimeter=0;entryX=0.5;entryY=0;entryDx=0;entryDy=0;entryPerimeter=0;strokeWidth=3;strokeColor=#009A00;dashed=1;" parent="1" source="l_toODga9vDxubMpZagS-2" target="l_toODga9vDxubMpZagS-4" edge="1">
          <mxGeometry relative="1" as="geometry">
            <Array as="points">
              <mxPoint x="795" y="270" />
              <mxPoint x="766" y="270" />
              <mxPoint x="766" y="300" />
              <mxPoint x="115" y="300" />
            </Array>
          </mxGeometry>
        </mxCell>
        <mxCell id="LrroqsVYPY0s_gGEzE_g-4" value="UDP&lt;div&gt;Info for&lt;/div&gt;&lt;div&gt;RTCD&lt;/div&gt;" style="edgeLabel;html=1;align=center;verticalAlign=middle;resizable=0;points=[];fontStyle=1;fontColor=#0000FF;" parent="LrroqsVYPY0s_gGEzE_g-3" vertex="1" connectable="0">
          <mxGeometry x="-0.0486" y="1" relative="1" as="geometry">
            <mxPoint as="offset" />
          </mxGeometry>
        </mxCell>
        <mxCell id="LrroqsVYPY0s_gGEzE_g-6" value="Start here&lt;div&gt;Client inits call&lt;/div&gt;" style="strokeWidth=2;shadow=0;dashed=0;align=center;html=1;shape=mxgraph.mockup.text.callout;linkText=;textSize=17;textColor=#666666;callDir=NE;callStyle=line;fontSize=17;fontColor=#009A00;align=right;verticalAlign=top;strokeColor=#666666;fontStyle=1" parent="1" vertex="1">
          <mxGeometry x="150" y="290" width="130" height="50" as="geometry" />
        </mxCell>
        <mxCell id="LrroqsVYPY0s_gGEzE_g-7" style="edgeStyle=orthogonalEdgeStyle;rounded=0;orthogonalLoop=1;jettySize=auto;html=1;exitX=0.005;exitY=0.63;exitDx=0;exitDy=0;exitPerimeter=0;entryX=0.5;entryY=1;entryDx=0;entryDy=0;entryPerimeter=0;strokeWidth=3;strokeColor=#009A00;dashed=1;" parent="1" source="l_toODga9vDxubMpZagS-2" target="l_toODga9vDxubMpZagS-2" edge="1">
          <mxGeometry relative="1" as="geometry">
            <Array as="points">
              <mxPoint x="795" y="264" />
            </Array>
          </mxGeometry>
        </mxCell>
        <mxCell id="Kne1mPzZdq38PCkMq-cb-3" value="TCP/30443&lt;div&gt;TCP/30080&lt;/div&gt;" style="text;html=1;align=center;verticalAlign=middle;whiteSpace=wrap;rounded=0;fontColor=#FF8000;fontStyle=1" vertex="1" parent="1">
          <mxGeometry x="511" y="310" width="60" height="30" as="geometry" />
        </mxCell>
        <mxCell id="Kne1mPzZdq38PCkMq-cb-4" value="Port Number" style="text;html=1;align=center;verticalAlign=middle;whiteSpace=wrap;rounded=0;fontColor=#FF8000;fontStyle=1" vertex="1" parent="1">
          <mxGeometry x="130" y="571" width="80" height="30" as="geometry" />
        </mxCell>
        <mxCell id="Kne1mPzZdq38PCkMq-cb-5" value="TCP/8065" style="text;html=1;align=center;verticalAlign=middle;whiteSpace=wrap;rounded=0;fontColor=#FF8000;fontStyle=1" vertex="1" parent="1">
          <mxGeometry x="690" y="260" width="80" height="30" as="geometry" />
        </mxCell>
        <mxCell id="Kne1mPzZdq38PCkMq-cb-6" value="TCP/8045" style="text;html=1;align=center;verticalAlign=middle;whiteSpace=wrap;rounded=0;fontColor=#FF8000;fontStyle=1" vertex="1" parent="1">
          <mxGeometry x="730" y="381" width="80" height="30" as="geometry" />
        </mxCell>
        <mxCell id="Kne1mPzZdq38PCkMq-cb-8" value="UDP/30123" style="text;html=1;align=center;verticalAlign=middle;whiteSpace=wrap;rounded=0;fontColor=#FF8000;fontStyle=1" vertex="1" parent="1">
          <mxGeometry x="690" y="430" width="80" height="30" as="geometry" />
        </mxCell>
        <mxCell id="Kne1mPzZdq38PCkMq-cb-9" style="edgeStyle=orthogonalEdgeStyle;rounded=0;orthogonalLoop=1;jettySize=auto;html=1;exitX=0.005;exitY=0.63;exitDx=0;exitDy=0;exitPerimeter=0;entryX=0.72;entryY=0.714;entryDx=0;entryDy=0;entryPerimeter=0;strokeColor=#009A00;strokeWidth=3;startArrow=classic;startFill=0;endArrow=none;" edge="1" parent="1" source="l_toODga9vDxubMpZagS-9" target="l_toODga9vDxubMpZagS-4">
          <mxGeometry relative="1" as="geometry" />
        </mxCell>
        <mxCell id="Kne1mPzZdq38PCkMq-cb-10" style="edgeStyle=orthogonalEdgeStyle;rounded=0;orthogonalLoop=1;jettySize=auto;html=1;exitX=0.995;exitY=0.63;exitDx=0;exitDy=0;exitPerimeter=0;entryX=0.143;entryY=0.714;entryDx=0;entryDy=0;entryPerimeter=0;strokeColor=#00FF00;strokeWidth=3;flowAnimation=0;shadow=0;fillColor=#d5e8d4;" edge="1" parent="1" source="l_toODga9vDxubMpZagS-9" target="l_toODga9vDxubMpZagS-2">
          <mxGeometry relative="1" as="geometry" />
        </mxCell>
        <mxCell id="Kne1mPzZdq38PCkMq-cb-11" style="edgeStyle=orthogonalEdgeStyle;rounded=0;orthogonalLoop=1;jettySize=auto;html=1;strokeWidth=3;strokeColor=#00FF00;endArrow=none;startFill=0;" edge="1" parent="1">
          <mxGeometry relative="1" as="geometry">
            <mxPoint x="112" y="539" as="sourcePoint" />
            <mxPoint x="232" y="538" as="targetPoint" />
          </mxGeometry>
        </mxCell>
        <mxCell id="Kne1mPzZdq38PCkMq-cb-12" value="TCP (mTLS)" style="edgeLabel;html=1;align=center;verticalAlign=middle;resizable=0;points=[];" vertex="1" connectable="0" parent="Kne1mPzZdq38PCkMq-cb-11">
          <mxGeometry x="-0.0247" y="-1" relative="1" as="geometry">
            <mxPoint x="-1" y="1" as="offset" />
          </mxGeometry>
        </mxCell>
        <mxCell id="Kne1mPzZdq38PCkMq-cb-13" style="edgeStyle=orthogonalEdgeStyle;rounded=0;orthogonalLoop=1;jettySize=auto;html=1;strokeWidth=3;strokeColor=#009A00;endArrow=none;startFill=0;dashed=1;" edge="1" parent="1">
          <mxGeometry relative="1" as="geometry">
            <mxPoint x="110" y="561" as="sourcePoint" />
            <mxPoint x="230" y="560" as="targetPoint" />
          </mxGeometry>
        </mxCell>
        <mxCell id="Kne1mPzZdq38PCkMq-cb-14" value="TCP&amp;nbsp; RX" style="edgeLabel;html=1;align=center;verticalAlign=middle;resizable=0;points=[];" vertex="1" connectable="0" parent="Kne1mPzZdq38PCkMq-cb-13">
          <mxGeometry x="-0.0247" y="-1" relative="1" as="geometry">
            <mxPoint as="offset" />
          </mxGeometry>
        </mxCell>
        <mxCell id="Kne1mPzZdq38PCkMq-cb-15" value="(this is not a new session, but return packets on original established session)" style="text;html=1;align=center;verticalAlign=middle;whiteSpace=wrap;rounded=0;" vertex="1" parent="1">
          <mxGeometry x="220" y="550" width="220" height="30" as="geometry" />
        </mxCell>
      </root>
    </mxGraphModel>
  </diagram>
</mxfile>
